<svg xmlns="http://www.w3.org/2000/svg" xmlns:xlink="http://www.w3.org/1999/xlink" width="1085" zoomAndPan="magnify" viewBox="0 0 810 809.999993" height="1080" preserveAspectRatio="xMidYMid meet" version="1.0">
    <defs>
        <filter id="shadow" x="-10%" y="-10%" width="125%" height="125%">
            <feGaussianBlur in="SourceAlpha" stdDeviation="20" />
            <feOffset dx="0" dy="30" result="offsetblur" />
            <feFlood flood-color="rgba(5,5,5,0.9)" />
            <feComposite in2="offsetblur" operator="in" />
            <feMerge>
                <feMergeNode />
                <feMergeNode in="SourceGraphic" />
            </feMerge>
        </filter>
    </defs>

    <path fill="#846b30" d="M 809.980469 405.132812 C 809.980469 628.660156 628.773438 809.871094 405.242188 809.871094 C 390.523438 809.890625 375.847656 809.109375 361.214844 807.523438 C 346.578125 805.933594 332.074219 803.554688 317.703125 800.378906 C 303.328125 797.203125 289.171875 793.253906 275.230469 788.527344 C 261.289062 783.800781 247.648438 778.328125 234.308594 772.109375 C 226.28125 768.355469 218.007812 765.257812 209.488281 762.816406 C 200.972656 760.371094 192.3125 758.609375 183.519531 757.535156 C 174.722656 756.457031 165.894531 756.082031 157.039062 756.402344 C 148.183594 756.71875 139.40625 757.734375 130.710938 759.441406 L 67.523438 771.882812 C 40.753906 777.152344 19.898438 748.929688 32.792969 724.886719 C 57.777344 678.3125 59.773438 622.636719 37.613281 574.65625 C 31.53125 561.484375 26.179688 548.023438 21.554688 534.269531 C 16.925781 520.519531 13.054688 506.558594 9.933594 492.390625 C 6.816406 478.222656 4.46875 463.925781 2.890625 449.503906 C 1.316406 435.082031 0.523438 420.613281 0.507812 406.105469 C -0.0195312 182.375 180.914062 0.71875 404.644531 0.394531 C 628.449219 0.0703125 809.980469 181.40625 809.980469 405.132812 Z M 809.980469 405.132812 " fill-opacity="1" fill-rule="nonzero" filter="url(#shadow)"/>
    
    <path fill="#ffffff" d="M 751.703125 405.132812 C 751.703125 410.804688 751.5625 416.46875 751.285156 422.132812 C 751.007812 427.796875 750.589844 433.449219 750.035156 439.09375 C 749.476562 444.734375 748.785156 450.359375 747.953125 455.96875 C 747.121094 461.578125 746.152344 467.164062 745.042969 472.722656 C 743.9375 478.285156 742.695312 483.816406 741.320312 489.316406 C 739.941406 494.816406 738.429688 500.277344 736.785156 505.703125 C 735.136719 511.128906 733.359375 516.511719 731.449219 521.851562 C 729.539062 527.191406 727.5 532.476562 725.328125 537.714844 C 723.160156 542.957031 720.863281 548.136719 718.4375 553.261719 C 716.015625 558.386719 713.464844 563.453125 710.792969 568.453125 C 708.121094 573.453125 705.324219 578.382812 702.410156 583.246094 C 699.496094 588.109375 696.464844 592.898438 693.3125 597.613281 C 690.164062 602.328125 686.898438 606.964844 683.519531 611.519531 C 680.144531 616.070312 676.65625 620.539062 673.058594 624.921875 C 669.460938 629.304688 665.761719 633.597656 661.953125 637.800781 C 658.144531 642 654.234375 646.105469 650.226562 650.117188 C 646.21875 654.125 642.113281 658.035156 637.910156 661.839844 C 633.710938 665.648438 629.417969 669.351562 625.035156 672.949219 C 620.652344 676.546875 616.183594 680.03125 611.628906 683.410156 C 607.074219 686.789062 602.441406 690.050781 597.726562 693.203125 C 593.011719 696.351562 588.222656 699.382812 583.359375 702.300781 C 578.496094 705.214844 573.5625 708.007812 568.5625 710.679688 C 563.5625 713.355469 558.5 715.902344 553.375 718.328125 C 548.25 720.75 543.066406 723.046875 537.828125 725.21875 C 532.589844 727.386719 527.300781 729.429688 521.960938 731.339844 C 516.625 733.25 511.242188 735.027344 505.816406 736.671875 C 500.390625 738.316406 494.925781 739.832031 489.425781 741.207031 C 483.925781 742.585938 478.394531 743.828125 472.835938 744.933594 C 467.273438 746.039062 461.6875 747.007812 456.078125 747.839844 C 450.472656 748.671875 444.84375 749.367188 439.203125 749.921875 C 433.558594 750.476562 427.90625 750.894531 422.242188 751.171875 C 416.582031 751.453125 410.914062 751.589844 405.242188 751.589844 C 399.574219 751.589844 393.90625 751.453125 388.246094 751.171875 C 382.582031 750.894531 376.929688 750.476562 371.285156 749.921875 C 365.644531 749.367188 360.015625 748.671875 354.410156 747.839844 C 348.800781 747.007812 343.214844 746.039062 337.652344 744.933594 C 332.09375 743.828125 326.5625 742.585938 321.0625 741.207031 C 315.5625 739.832031 310.097656 738.316406 304.671875 736.671875 C 299.246094 735.027344 293.863281 733.25 288.527344 731.339844 C 283.1875 729.429688 277.898438 727.386719 272.660156 725.21875 C 267.421875 723.046875 262.238281 720.75 257.113281 718.328125 C 251.988281 715.902344 246.925781 713.355469 241.925781 710.679688 C 236.925781 708.007812 231.992188 705.214844 227.128906 702.300781 C 222.265625 699.382812 217.476562 696.351562 212.761719 693.203125 C 208.046875 690.050781 203.414062 686.789062 198.859375 683.410156 C 194.304688 680.03125 189.835938 676.546875 185.453125 672.949219 C 181.070312 669.351562 176.777344 665.648438 172.578125 661.839844 C 168.375 658.035156 164.269531 654.125 160.261719 650.117188 C 156.253906 646.105469 152.34375 642 148.535156 637.800781 C 144.726562 633.597656 141.027344 629.304688 137.429688 624.921875 C 133.832031 620.539062 130.34375 616.070312 126.96875 611.519531 C 123.589844 606.964844 120.324219 602.328125 117.175781 597.613281 C 114.023438 592.898438 110.992188 588.109375 108.078125 583.246094 C 105.164062 578.382812 102.367188 573.453125 99.695312 568.453125 C 97.023438 563.453125 94.472656 558.386719 92.050781 553.261719 C 89.625 548.136719 87.328125 542.957031 85.160156 537.714844 C 82.988281 532.476562 80.949219 527.191406 79.039062 521.851562 C 77.128906 516.511719 75.351562 511.128906 73.703125 505.703125 C 72.058594 500.277344 70.546875 494.816406 69.167969 489.316406 C 67.792969 483.816406 66.550781 478.285156 65.445312 472.722656 C 64.335938 467.164062 63.367188 461.578125 62.535156 455.96875 C 61.703125 450.359375 61.011719 444.734375 60.453125 439.09375 C 59.898438 433.449219 59.480469 427.796875 59.203125 422.132812 C 58.925781 416.46875 58.785156 410.804688 58.785156 405.132812 C 58.785156 399.464844 58.925781 393.796875 59.203125 388.132812 C 59.480469 382.46875 59.898438 376.816406 60.453125 371.175781 C 61.011719 365.53125 61.703125 359.90625 62.535156 354.296875 C 63.367188 348.6875 64.335938 343.105469 65.445312 337.542969 C 66.550781 331.980469 67.792969 326.449219 69.167969 320.949219 C 70.546875 315.449219 72.058594 309.988281 73.703125 304.5625 C 75.351562 299.136719 77.128906 293.753906 79.039062 288.414062 C 80.949219 283.078125 82.988281 277.789062 85.160156 272.550781 C 87.328125 267.3125 89.625 262.128906 92.050781 257.003906 C 94.472656 251.878906 97.023438 246.816406 99.695312 241.8125 C 102.367188 236.8125 105.164062 231.882812 108.078125 227.019531 C 110.992188 222.15625 114.023438 217.367188 117.175781 212.652344 C 120.324219 207.9375 123.589844 203.304688 126.96875 198.75 C 130.34375 194.195312 133.832031 189.726562 137.429688 185.34375 C 141.027344 180.960938 144.726562 176.667969 148.535156 172.464844 C 152.34375 168.265625 156.253906 164.160156 160.261719 160.152344 C 164.269531 156.140625 168.375 152.234375 172.578125 148.425781 C 176.777344 144.617188 181.070312 140.914062 185.453125 137.316406 C 189.835938 133.722656 194.304688 130.234375 198.859375 126.855469 C 203.414062 123.476562 208.046875 120.214844 212.761719 117.0625 C 217.476562 113.914062 222.265625 110.882812 227.128906 107.964844 C 231.992188 105.050781 236.925781 102.257812 241.925781 99.585938 C 246.925781 96.910156 251.988281 94.363281 257.113281 91.9375 C 262.238281 89.515625 267.421875 87.21875 272.660156 85.046875 C 277.898438 82.878906 283.1875 80.839844 288.527344 78.929688 C 293.863281 77.019531 299.246094 75.238281 304.671875 73.59375 C 310.097656 71.949219 315.5625 70.4375 321.0625 69.058594 C 326.5625 67.679688 332.09375 66.4375 337.652344 65.332031 C 343.214844 64.226562 348.800781 63.257812 354.410156 62.425781 C 360.015625 61.59375 365.644531 60.898438 371.285156 60.34375 C 376.929688 59.789062 382.582031 59.371094 388.246094 59.09375 C 393.90625 58.816406 399.574219 58.675781 405.242188 58.675781 C 410.914062 58.675781 416.582031 58.816406 422.242188 59.09375 C 427.90625 59.371094 433.558594 59.789062 439.203125 60.34375 C 444.84375 60.898438 450.472656 61.59375 456.078125 62.425781 C 461.6875 63.257812 467.273438 64.226562 472.835938 65.332031 C 478.394531 66.4375 483.925781 67.679688 489.425781 69.058594 C 494.925781 70.4375 500.390625 71.949219 505.816406 73.59375 C 511.242188 75.238281 516.625 77.019531 521.960938 78.929688 C 527.300781 80.839844 532.589844 82.878906 537.828125 85.046875 C 543.066406 87.21875 548.25 89.515625 553.375 91.9375 C 558.5 94.363281 563.5625 96.910156 568.5625 99.585938 C 573.5625 102.257812 578.496094 105.050781 583.359375 107.964844 C 588.222656 110.882812 593.011719 113.914062 597.726562 117.0625 C 602.441406 120.214844 607.074219 123.476562 611.628906 126.855469 C 616.183594 130.234375 620.652344 133.722656 625.035156 137.316406 C 629.417969 140.914062 633.710938 144.617188 637.910156 148.425781 C 642.113281 152.234375 646.21875 156.140625 650.226562 160.152344 C 654.234375 164.160156 658.144531 168.265625 661.953125 172.464844 C 665.761719 176.667969 669.460938 180.960938 673.058594 185.34375 C 676.65625 189.726562 680.144531 194.195312 683.519531 198.75 C 686.898438 203.304688 690.164062 207.9375 693.3125 212.652344 C 696.464844 217.367188 699.496094 222.15625 702.410156 227.019531 C 705.324219 231.882812 708.121094 236.8125 710.792969 241.8125 C 713.464844 246.816406 716.015625 251.878906 718.4375 257.003906 C 720.863281 262.128906 723.160156 267.3125 725.328125 272.550781 C 727.5 277.789062 729.539062 283.078125 731.449219 288.414062 C 733.359375 293.753906 735.136719 299.136719 736.785156 304.5625 C 738.429688 309.988281 739.941406 315.449219 741.320312 320.949219 C 742.695312 326.449219 743.9375 331.980469 745.042969 337.542969 C 746.152344 343.105469 747.121094 348.6875 747.953125 354.296875 C 748.785156 359.90625 749.476562 365.53125 750.035156 371.175781 C 750.589844 376.816406 751.007812 382.46875 751.285156 388.132812 C 751.5625 393.796875 751.703125 399.464844 751.703125 405.132812 Z M 751.703125 405.132812 " fill-opacity="1" fill-rule="nonzero"/>
    
    <path fill="#846b30" d="M 689.835938 405.132812 C 689.835938 409.789062 689.71875 414.445312 689.492188 419.097656 C 689.261719 423.75 688.921875 428.394531 688.464844 433.027344 C 688.007812 437.664062 687.4375 442.285156 686.753906 446.890625 C 686.070312 451.5 685.273438 456.085938 684.367188 460.652344 C 683.457031 465.222656 682.4375 469.765625 681.304688 474.28125 C 680.171875 478.800781 678.933594 483.289062 677.578125 487.746094 C 676.226562 492.203125 674.765625 496.625 673.199219 501.007812 C 671.628906 505.394531 669.953125 509.738281 668.171875 514.042969 C 666.390625 518.34375 664.5 522.601562 662.511719 526.8125 C 660.519531 531.019531 658.425781 535.179688 656.230469 539.289062 C 654.035156 543.394531 651.738281 547.445312 649.34375 551.441406 C 646.949219 555.4375 644.460938 559.371094 641.871094 563.242188 C 639.285156 567.117188 636.605469 570.921875 633.828125 574.664062 C 631.054688 578.402344 628.191406 582.074219 625.234375 585.675781 C 622.28125 589.277344 619.238281 592.800781 616.113281 596.253906 C 612.984375 599.703125 609.773438 603.074219 606.480469 606.367188 C 603.1875 609.660156 599.8125 612.871094 596.363281 616 C 592.910156 619.128906 589.386719 622.167969 585.785156 625.125 C 582.1875 628.078125 578.515625 630.945312 574.773438 633.71875 C 571.03125 636.492188 567.226562 639.171875 563.355469 641.761719 C 559.480469 644.347656 555.546875 646.839844 551.550781 649.234375 C 547.558594 651.628906 543.507812 653.921875 539.398438 656.121094 C 535.292969 658.316406 531.132812 660.410156 526.921875 662.398438 C 522.710938 664.390625 518.453125 666.277344 514.152344 668.058594 C 509.847656 669.84375 505.503906 671.519531 501.121094 673.085938 C 496.734375 674.65625 492.3125 676.117188 487.855469 677.46875 C 483.398438 678.820312 478.910156 680.0625 474.394531 681.195312 C 469.875 682.328125 465.332031 683.347656 460.765625 684.253906 C 456.195312 685.164062 451.609375 685.960938 447.003906 686.644531 C 442.394531 687.328125 437.773438 687.894531 433.140625 688.351562 C 428.503906 688.808594 423.859375 689.152344 419.207031 689.378906 C 414.554688 689.609375 409.902344 689.722656 405.242188 689.722656 C 400.585938 689.722656 395.933594 689.609375 391.28125 689.378906 C 386.628906 689.152344 381.984375 688.808594 377.347656 688.351562 C 372.714844 687.894531 368.09375 687.328125 363.484375 686.644531 C 358.878906 685.960938 354.292969 685.164062 349.722656 684.253906 C 345.15625 683.347656 340.613281 682.328125 336.09375 681.195312 C 331.578125 680.0625 327.089844 678.820312 322.632812 677.46875 C 318.175781 676.117188 313.753906 674.65625 309.367188 673.085938 C 304.984375 671.519531 300.640625 669.84375 296.335938 668.058594 C 292.03125 666.277344 287.777344 664.390625 283.566406 662.398438 C 279.355469 660.410156 275.195312 658.316406 271.089844 656.121094 C 266.980469 653.921875 262.929688 651.628906 258.9375 649.234375 C 254.941406 646.839844 251.007812 644.347656 247.132812 641.761719 C 243.261719 639.171875 239.453125 636.492188 235.714844 633.71875 C 231.972656 630.945312 228.300781 628.078125 224.703125 625.125 C 221.101562 622.167969 217.574219 619.128906 214.125 616 C 210.675781 612.871094 207.300781 609.660156 204.007812 606.367188 C 200.714844 603.074219 197.503906 599.703125 194.375 596.253906 C 191.25 592.800781 188.207031 589.277344 185.253906 585.675781 C 182.296875 582.074219 179.433594 578.402344 176.660156 574.664062 C 173.882812 570.921875 171.203125 567.117188 168.617188 563.242188 C 166.027344 559.371094 163.539062 555.4375 161.144531 551.441406 C 158.75 547.445312 156.453125 543.394531 154.257812 539.289062 C 152.0625 535.179688 149.96875 531.019531 147.976562 526.8125 C 145.984375 522.601562 144.097656 518.34375 142.316406 514.042969 C 140.535156 509.738281 138.859375 505.394531 137.289062 501.007812 C 135.722656 496.625 134.261719 492.203125 132.910156 487.746094 C 131.554688 483.289062 130.316406 478.800781 129.183594 474.28125 C 128.050781 469.765625 127.03125 465.222656 126.121094 460.652344 C 125.214844 456.085938 124.417969 451.5 123.734375 446.890625 C 123.050781 442.285156 122.480469 437.664062 122.023438 433.027344 C 121.566406 428.394531 121.226562 423.75 120.996094 419.097656 C 120.769531 414.445312 120.652344 409.789062 120.652344 405.132812 C 120.652344 400.476562 120.769531 395.820312 120.996094 391.167969 C 121.226562 386.515625 121.566406 381.875 122.023438 377.238281 C 122.480469 372.601562 123.050781 367.980469 123.734375 363.375 C 124.417969 358.769531 125.214844 354.179688 126.121094 349.613281 C 127.03125 345.042969 128.050781 340.5 129.183594 335.984375 C 130.316406 331.464844 131.554688 326.976562 132.910156 322.519531 C 134.261719 318.0625 135.722656 313.644531 137.289062 309.257812 C 138.859375 304.871094 140.535156 300.527344 142.316406 296.226562 C 144.097656 291.921875 145.984375 287.664062 147.976562 283.457031 C 149.96875 279.246094 152.0625 275.085938 154.257812 270.976562 C 156.453125 266.871094 158.75 262.820312 161.144531 258.824219 C 163.539062 254.828125 166.027344 250.894531 168.617188 247.023438 C 171.203125 243.152344 173.882812 239.34375 176.660156 235.601562 C 179.433594 231.863281 182.296875 228.191406 185.253906 224.589844 C 188.207031 220.992188 191.25 217.464844 194.375 214.015625 C 197.503906 210.5625 200.714844 207.191406 204.007812 203.898438 C 207.300781 200.605469 210.675781 197.394531 214.125 194.265625 C 217.574219 191.136719 221.101562 188.097656 224.703125 185.140625 C 228.300781 182.1875 231.972656 179.324219 235.714844 176.546875 C 239.453125 173.773438 243.261719 171.09375 247.132812 168.503906 C 251.007812 165.917969 254.941406 163.425781 258.9375 161.03125 C 262.929688 158.636719 266.980469 156.34375 271.089844 154.148438 C 275.195312 151.953125 279.355469 149.859375 283.566406 147.867188 C 287.777344 145.875 292.03125 143.988281 296.335938 142.207031 C 300.640625 140.421875 304.984375 138.75 309.367188 137.179688 C 313.753906 135.609375 318.175781 134.148438 322.632812 132.796875 C 327.089844 131.445312 331.578125 130.203125 336.09375 129.070312 C 340.613281 127.941406 345.15625 126.921875 349.722656 126.011719 C 354.292969 125.101562 358.878906 124.308594 363.484375 123.625 C 368.09375 122.941406 372.714844 122.371094 377.347656 121.914062 C 381.984375 121.457031 386.628906 121.113281 391.28125 120.886719 C 395.933594 120.65625 400.585938 120.542969 405.242188 120.542969 C 409.902344 120.542969 414.554688 120.65625 419.207031 120.886719 C 423.859375 121.113281 428.503906 121.457031 433.140625 121.914062 C 437.773438 122.371094 442.394531 122.941406 447.003906 123.625 C 451.609375 124.308594 456.195312 125.101562 460.765625 126.011719 C 465.332031 126.921875 469.875 127.941406 474.394531 129.070312 C 478.910156 130.203125 483.398438 131.445312 487.855469 132.796875 C 492.3125 134.148438 496.734375 135.609375 501.121094 137.179688 C 505.503906 138.75 509.847656 140.421875 514.152344 142.207031 C 518.453125 143.988281 522.710938 145.875 526.921875 147.867188 C 531.132812 149.859375 535.292969 151.953125 539.398438 154.148438 C 543.507812 156.34375 547.558594 158.636719 551.550781 161.03125 C 555.546875 163.425781 559.480469 165.917969 563.355469 168.503906 C 567.226562 171.09375 571.035156 173.773438 574.773438 176.546875 C 578.515625 179.324219 582.1875 182.1875 585.785156 185.140625 C 589.386719 188.097656 592.910156 191.136719 596.363281 194.265625 C 599.8125 197.394531 603.1875 200.605469 606.480469 203.898438 C 609.773438 207.191406 612.984375 210.5625 616.113281 214.015625 C 619.238281 217.464844 622.28125 220.992188 625.234375 224.589844 C 628.191406 228.191406 631.054688 231.863281 633.828125 235.601562 C 636.601562 239.34375 639.285156 243.152344 641.871094 247.023438 C 644.460938 250.894531 646.949219 254.828125 649.34375 258.824219 C 651.738281 262.820312 654.035156 266.871094 656.230469 270.976562 C 658.425781 275.085938 660.519531 279.246094 662.511719 283.457031 C 664.5 287.664062 666.390625 291.921875 668.171875 296.226562 C 669.953125 300.527344 671.628906 304.871094 673.199219 309.257812 C 674.765625 313.644531 676.226562 318.0625 677.578125 322.519531 C 678.933594 326.976562 680.171875 331.464844 681.304688 335.984375 C 682.4375 340.5 683.457031 345.042969 684.367188 349.613281 C 685.273438 354.179688 686.070312 358.769531 686.753906 363.375 C 687.4375 367.980469 688.007812 372.601562 688.464844 377.238281 C 688.921875 381.875 689.261719 386.515625 689.492188 391.167969 C 689.71875 395.820312 689.835938 400.476562 689.835938 405.132812 Z M 689.835938 405.132812 " fill-opacity="1" fill-rule="nonzero"/>
    
    <path fill="#ffffff" d="M 363.539062 341.257812 L 349.160156 298.300781 C 348.75 297.078125 348.277344 295.878906 347.742188 294.707031 C 347.207031 293.535156 346.609375 292.390625 345.953125 291.28125 C 345.296875 290.171875 344.585938 289.097656 343.816406 288.0625 C 343.046875 287.027344 342.226562 286.035156 341.351562 285.085938 C 340.480469 284.136719 339.558594 283.234375 338.589844 282.382812 C 337.621094 281.53125 336.609375 280.734375 335.558594 279.988281 C 334.507812 279.242188 333.417969 278.554688 332.292969 277.921875 C 331.167969 277.292969 330.011719 276.722656 328.828125 276.210938 C 327.644531 275.703125 326.433594 275.257812 325.203125 274.875 C 323.972656 274.492188 322.722656 274.175781 321.457031 273.925781 C 320.191406 273.675781 318.917969 273.492188 317.632812 273.378906 C 316.347656 273.261719 315.0625 273.210938 313.769531 273.230469 C 312.480469 273.25 311.195312 273.339844 309.917969 273.492188 C 308.636719 273.648438 307.367188 273.871094 306.109375 274.160156 C 304.851562 274.445312 303.613281 274.800781 302.394531 275.21875 C 301.175781 275.636719 299.980469 276.121094 298.8125 276.664062 L 275.613281 287.472656 C 274.675781 287.910156 273.761719 288.386719 272.867188 288.898438 C 271.96875 289.414062 271.097656 289.964844 270.246094 290.550781 C 269.398438 291.140625 268.574219 291.761719 267.777344 292.417969 C 266.980469 293.078125 266.210938 293.765625 265.472656 294.488281 C 264.734375 295.210938 264.023438 295.960938 263.351562 296.742188 C 262.675781 297.523438 262.03125 298.332031 261.425781 299.167969 C 260.816406 300.003906 260.246094 300.863281 259.710938 301.75 C 259.175781 302.632812 258.679688 303.535156 258.21875 304.460938 C 257.761719 305.386719 257.34375 306.332031 256.964844 307.292969 C 256.585938 308.253906 256.246094 309.230469 255.949219 310.21875 C 255.652344 311.207031 255.398438 312.207031 255.183594 313.21875 C 254.972656 314.230469 254.800781 315.25 254.675781 316.273438 C 254.546875 317.300781 254.464844 318.328125 254.425781 319.359375 C 254.386719 320.394531 254.386719 321.425781 254.4375 322.457031 C 254.484375 323.488281 254.574219 324.515625 254.707031 325.542969 C 254.839844 326.566406 255.015625 327.582031 255.234375 328.59375 C 269.753906 395.734375 323.121094 556.507812 503.308594 576.550781 C 505.089844 576.746094 506.871094 576.816406 508.660156 576.753906 C 510.449219 576.691406 512.222656 576.496094 513.984375 576.175781 C 515.742188 575.855469 517.472656 575.40625 519.167969 574.832031 C 520.863281 574.257812 522.507812 573.566406 524.097656 572.75 C 525.691406 571.9375 527.21875 571.011719 528.679688 569.972656 C 530.136719 568.9375 531.511719 567.800781 532.804688 566.5625 C 534.097656 565.324219 535.292969 564 536.390625 562.585938 C 537.488281 561.175781 538.480469 559.6875 539.363281 558.132812 L 551.320312 537 C 551.914062 535.953125 552.453125 534.878906 552.941406 533.777344 C 553.429688 532.679688 553.859375 531.558594 554.238281 530.414062 C 554.613281 529.273438 554.933594 528.113281 555.195312 526.941406 C 555.460938 525.765625 555.664062 524.582031 555.8125 523.386719 C 555.960938 522.195312 556.046875 520.996094 556.074219 519.792969 C 556.105469 518.589844 556.074219 517.390625 555.988281 516.1875 C 555.898438 514.988281 555.75 513.796875 555.542969 512.613281 C 555.339844 511.425781 555.074219 510.253906 554.753906 509.09375 C 554.433594 507.933594 554.054688 506.792969 553.621094 505.671875 C 553.1875 504.550781 552.699219 503.453125 552.160156 502.378906 C 551.617188 501.300781 551.023438 500.257812 550.382812 499.242188 C 549.738281 498.226562 549.046875 497.242188 548.304688 496.292969 C 547.5625 495.347656 546.777344 494.4375 545.949219 493.566406 C 545.121094 492.695312 544.25 491.867188 543.335938 491.082031 C 542.425781 490.296875 541.480469 489.554688 540.496094 488.863281 C 539.511719 488.171875 538.496094 487.527344 537.449219 486.9375 L 537.199219 486.796875 L 505.085938 468.945312 C 503.359375 467.988281 501.566406 467.171875 499.707031 466.5 C 497.847656 465.832031 495.945312 465.3125 494.003906 464.949219 C 492.0625 464.585938 490.105469 464.378906 488.128906 464.332031 C 486.152344 464.285156 484.1875 464.394531 482.230469 464.664062 C 480.269531 464.933594 478.347656 465.359375 476.460938 465.9375 C 474.570312 466.519531 472.738281 467.246094 470.96875 468.121094 C 469.195312 468.996094 467.507812 470.007812 465.898438 471.15625 C 464.289062 472.304688 462.785156 473.574219 461.378906 474.964844 C 459.988281 476.347656 458.492188 477.613281 456.894531 478.757812 C 455.300781 479.898438 453.621094 480.910156 451.863281 481.785156 C 450.105469 482.660156 448.289062 483.386719 446.414062 483.96875 C 444.539062 484.550781 442.628906 484.980469 440.683594 485.257812 C 438.738281 485.53125 436.785156 485.652344 434.820312 485.613281 C 432.855469 485.574219 430.910156 485.378906 428.976562 485.027344 C 427.042969 484.675781 425.152344 484.175781 423.300781 483.519531 C 421.449219 482.863281 419.660156 482.066406 417.9375 481.121094 C 398.414062 470.394531 371.644531 452.097656 352.882812 425.066406 C 351.835938 423.558594 350.902344 421.984375 350.085938 420.335938 C 349.273438 418.691406 348.582031 416.996094 348.023438 415.246094 C 347.460938 413.496094 347.035156 411.714844 346.738281 409.902344 C 346.445312 408.089844 346.285156 406.265625 346.265625 404.429688 C 346.242188 402.59375 346.355469 400.765625 346.609375 398.945312 C 346.859375 397.125 347.246094 395.335938 347.765625 393.574219 C 348.285156 391.8125 348.933594 390.097656 349.707031 388.433594 C 350.484375 386.769531 351.378906 385.171875 352.394531 383.640625 L 359.296875 373.257812 C 360.84375 370.929688 362.113281 368.457031 363.09375 365.835938 C 364.078125 363.21875 364.753906 360.523438 365.121094 357.75 C 365.492188 354.976562 365.542969 352.195312 365.273438 349.414062 C 365.007812 346.628906 364.429688 343.910156 363.542969 341.257812 Z M 363.539062 341.257812 " fill-opacity="1" fill-rule="nonzero"/>

</svg>