<svg xmlns="http://www.w3.org/2000/svg" xmlns:xlink="http://www.w3.org/1999/xlink" width="1080" zoomAndPan="magnify" viewBox="0 0 810 809.999993" height="1080" preserveAspectRatio="xMidYMid meet" version="1.0">
    <defs>
        <filter id="shadow" x="-10%" y="-10%" width="120%" height="120%">
            <feGaussianBlur in="SourceAlpha" stdDeviation="20" />
            <feOffset dx="0" dy="32" result="offsetblur" />
            <feFlood flood-color="rgba(0,0,0,1.5)" />
            <feComposite in2="offsetblur" operator="in" />
            <feMerge>
                <feMergeNode />
                <feMergeNode in="SourceGraphic" />
            </feMerge>
        </filter>
    </defs>

    <path fill="#846b30" d="M 405 0 C 398.371094 0 391.746094 0.164062 385.128906 0.488281 C 378.507812 0.8125 371.898438 1.300781 365.304688 1.949219 C 358.707031 2.601562 352.128906 3.410156 345.574219 4.382812 C 339.019531 5.355469 332.488281 6.488281 325.988281 7.78125 C 319.488281 9.074219 313.023438 10.527344 306.59375 12.136719 C 300.164062 13.746094 293.777344 15.515625 287.433594 17.4375 C 281.09375 19.363281 274.800781 21.441406 268.558594 23.675781 C 262.320312 25.90625 256.136719 28.292969 250.011719 30.828125 C 243.890625 33.367188 237.832031 36.050781 231.839844 38.882812 C 225.847656 41.71875 219.929688 44.699219 214.085938 47.820312 C 208.238281 50.945312 202.472656 54.210938 196.789062 57.621094 C 191.101562 61.027344 185.503906 64.574219 179.992188 68.253906 C 174.484375 71.9375 169.066406 75.753906 163.742188 79.699219 C 158.417969 83.648438 153.195312 87.726562 148.070312 91.929688 C 142.945312 96.136719 137.929688 100.464844 133.019531 104.914062 C 128.109375 109.367188 123.308594 113.933594 118.621094 118.621094 C 113.933594 123.308594 109.367188 128.109375 104.914062 133.019531 C 100.464844 137.929688 96.136719 142.945312 91.929688 148.070312 C 87.726562 153.195312 83.648438 158.417969 79.699219 163.742188 C 75.753906 169.066406 71.9375 174.484375 68.253906 179.992188 C 64.574219 185.503906 61.027344 191.101562 57.621094 196.789062 C 54.210938 202.472656 50.945312 208.238281 47.820312 214.085938 C 44.699219 219.929688 41.71875 225.847656 38.882812 231.839844 C 36.050781 237.832031 33.367188 243.890625 30.828125 250.011719 C 28.292969 256.136719 25.90625 262.320312 23.675781 268.558594 C 21.441406 274.800781 19.363281 281.09375 17.4375 287.433594 C 15.515625 293.777344 13.746094 300.164062 12.136719 306.59375 C 10.527344 313.023438 9.074219 319.488281 7.78125 325.988281 C 6.488281 332.488281 5.355469 339.019531 4.382812 345.574219 C 3.410156 352.128906 2.601562 358.707031 1.949219 365.304688 C 1.300781 371.898438 0.8125 378.507812 0.488281 385.128906 C 0.164062 391.746094 0 398.371094 0 405 C 0 411.628906 0.164062 418.253906 0.488281 424.871094 C 0.8125 431.492188 1.300781 438.101562 1.949219 444.695312 C 2.601562 451.292969 3.410156 457.871094 4.382812 464.425781 C 5.355469 470.980469 6.488281 477.511719 7.78125 484.011719 C 9.074219 490.511719 10.527344 496.976562 12.136719 503.40625 C 13.746094 509.835938 15.515625 516.222656 17.4375 522.566406 C 19.363281 528.90625 21.441406 535.199219 23.675781 541.441406 C 25.90625 547.679688 28.292969 553.863281 30.828125 559.988281 C 33.367188 566.109375 36.050781 572.167969 38.882812 578.160156 C 41.71875 584.152344 44.699219 590.070312 47.820312 595.914062 C 50.945312 601.761719 54.210938 607.527344 57.621094 613.210938 C 61.027344 618.898438 64.574219 624.496094 68.253906 630.007812 C 71.9375 635.515625 75.753906 640.933594 79.699219 646.257812 C 83.648438 651.582031 87.726562 656.804688 91.929688 661.929688 C 96.136719 667.054688 100.464844 672.070312 104.914062 676.980469 C 109.367188 681.890625 113.933594 686.691406 118.621094 691.378906 C 123.308594 696.066406 128.109375 700.632812 133.019531 705.085938 C 137.929688 709.535156 142.945312 713.863281 148.070312 718.070312 C 153.195312 722.273438 158.417969 726.351562 163.742188 730.300781 C 169.066406 734.246094 174.484375 738.0625 179.992188 741.746094 C 185.503906 745.425781 191.101562 748.972656 196.789062 752.378906 C 202.472656 755.789062 208.238281 759.054688 214.085938 762.179688 C 219.929688 765.300781 225.847656 768.28125 231.839844 771.117188 C 237.832031 773.949219 243.890625 776.632812 250.011719 779.171875 C 256.136719 781.707031 262.320312 784.09375 268.558594 786.324219 C 274.800781 788.558594 281.09375 790.636719 287.433594 792.5625 C 293.777344 794.484375 300.164062 796.253906 306.59375 797.863281 C 313.023438 799.472656 319.488281 800.925781 325.988281 802.21875 C 332.488281 803.511719 339.019531 804.644531 345.574219 805.617188 C 352.128906 806.589844 358.707031 807.398438 365.304688 808.050781 C 371.898438 808.699219 378.507812 809.1875 385.128906 809.511719 C 391.746094 809.835938 398.371094 810 405 810 C 411.628906 810 418.253906 809.835938 424.871094 809.511719 C 431.492188 809.1875 438.101562 808.699219 444.695312 808.050781 C 451.292969 807.398438 457.871094 806.589844 464.425781 805.617188 C 470.980469 804.644531 477.511719 803.511719 484.011719 802.21875 C 490.511719 800.925781 496.976562 799.472656 503.40625 797.863281 C 509.835938 796.253906 516.222656 794.484375 522.566406 792.5625 C 528.90625 790.636719 535.199219 788.558594 541.441406 786.324219 C 547.679688 784.09375 553.863281 781.707031 559.988281 779.171875 C 566.109375 776.632812 572.167969 773.949219 578.160156 771.117188 C 584.152344 768.28125 590.070312 765.300781 595.914062 762.179688 C 601.761719 759.054688 607.527344 755.789062 613.210938 752.378906 C 618.898438 748.972656 624.496094 745.425781 630.007812 741.746094 C 635.515625 738.0625 640.933594 734.246094 646.257812 730.300781 C 651.582031 726.351562 656.804688 722.273438 661.929688 718.070312 C 667.054688 713.863281 672.070312 709.535156 676.980469 705.085938 C 681.890625 700.632812 686.691406 696.066406 691.378906 691.378906 C 696.066406 686.691406 700.632812 681.890625 705.085938 676.980469 C 709.535156 672.070312 713.863281 667.054688 718.070312 661.929688 C 722.273438 656.804688 726.351562 651.582031 730.300781 646.257812 C 734.246094 640.933594 738.0625 635.515625 741.746094 630.003906 C 745.425781 624.496094 748.972656 618.898438 752.378906 613.210938 C 755.789062 607.527344 759.054688 601.761719 762.179688 595.914062 C 765.300781 590.070312 768.28125 584.152344 771.117188 578.160156 C 773.949219 572.167969 776.632812 566.109375 779.171875 559.988281 C 781.707031 553.863281 784.09375 547.679688 786.324219 541.441406 C 788.558594 535.199219 790.636719 528.90625 792.5625 522.566406 C 794.484375 516.222656 796.253906 509.835938 797.863281 503.40625 C 799.472656 496.976562 800.925781 490.511719 802.21875 484.011719 C 803.511719 477.511719 804.644531 470.980469 805.617188 464.425781 C 806.589844 457.871094 807.398438 451.292969 808.050781 444.695312 C 808.699219 438.101562 809.1875 431.492188 809.511719 424.871094 C 809.835938 418.253906 810 411.628906 810 405 C 809.996094 398.375 809.828125 391.75 809.496094 385.132812 C 809.164062 378.515625 808.671875 371.90625 808.019531 365.3125 C 807.363281 358.71875 806.550781 352.144531 805.574219 345.589844 C 804.597656 339.035156 803.460938 332.511719 802.164062 326.011719 C 800.867188 319.511719 799.410156 313.050781 797.796875 306.625 C 796.183594 300.195312 794.410156 293.8125 792.484375 287.472656 C 790.558594 281.132812 788.476562 274.84375 786.242188 268.605469 C 784.007812 262.367188 781.621094 256.1875 779.082031 250.066406 C 776.542969 243.945312 773.855469 237.890625 771.019531 231.898438 C 768.183594 225.910156 765.203125 219.996094 762.078125 214.152344 C 758.953125 208.308594 755.6875 202.542969 752.277344 196.863281 C 748.871094 191.179688 745.324219 185.582031 741.640625 180.074219 C 737.957031 174.566406 734.144531 169.148438 730.195312 163.828125 C 726.246094 158.503906 722.171875 153.285156 717.964844 148.160156 C 713.761719 143.039062 709.433594 138.023438 704.984375 133.113281 C 700.535156 128.203125 695.964844 123.40625 691.28125 118.71875 C 686.59375 114.035156 681.796875 109.464844 676.886719 105.015625 C 671.976562 100.566406 666.960938 96.238281 661.839844 92.035156 C 656.714844 87.828125 651.496094 83.753906 646.171875 79.804688 C 640.851562 75.855469 635.433594 72.042969 629.925781 68.359375 C 624.417969 64.675781 618.820312 61.128906 613.136719 57.722656 C 607.457031 54.3125 601.691406 51.046875 595.847656 47.921875 C 590.007812 44.796875 584.089844 41.816406 578.101562 38.980469 C 572.109375 36.144531 566.054688 33.457031 559.933594 30.917969 C 553.8125 28.378906 547.632812 25.992188 541.394531 23.757812 C 535.15625 21.523438 528.867188 19.441406 522.527344 17.515625 C 516.1875 15.589844 509.804688 13.816406 503.375 12.203125 C 496.949219 10.589844 490.488281 9.132812 483.988281 7.835938 C 477.488281 6.539062 470.964844 5.402344 464.410156 4.425781 C 457.855469 3.449219 451.28125 2.636719 444.6875 1.980469 C 438.09375 1.328125 431.484375 0.835938 424.867188 0.503906 C 418.25 0.171875 411.625 0.00390625 405 0 Z M 405.675781 641.25 C 404.570312 641.253906 403.464844 641.207031 402.367188 641.105469 C 401.265625 641 400.171875 640.84375 399.085938 640.632812 C 398.003906 640.425781 396.929688 640.160156 395.871094 639.84375 C 394.8125 639.53125 393.769531 639.164062 392.746094 638.746094 C 391.722656 638.328125 390.722656 637.859375 389.746094 637.34375 C 388.769531 636.828125 387.816406 636.265625 386.894531 635.65625 C 385.972656 635.046875 385.082031 634.394531 384.226562 633.695312 C 383.367188 633 382.546875 632.261719 381.761719 631.484375 C 380.976562 630.707031 380.230469 629.890625 379.523438 629.042969 C 378.820312 628.191406 378.15625 627.308594 377.539062 626.390625 C 376.917969 625.476562 376.347656 624.53125 375.820312 623.558594 C 375.296875 622.585938 374.816406 621.589844 374.390625 620.570312 C 373.960938 619.550781 373.585938 618.515625 373.257812 617.457031 C 372.933594 616.402344 372.660156 615.332031 372.4375 614.25 C 372.214844 613.167969 372.050781 612.074219 371.933594 610.976562 C 371.820312 609.875 371.761719 608.773438 371.757812 607.667969 C 371.75 606.5625 371.800781 605.460938 371.902344 604.359375 C 372.003906 603.257812 372.160156 602.167969 372.371094 601.082031 C 372.582031 599.996094 372.84375 598.921875 373.160156 597.863281 C 373.476562 596.804688 373.84375 595.765625 374.261719 594.742188 C 374.679688 593.71875 375.144531 592.714844 375.660156 591.738281 C 376.179688 590.761719 376.742188 589.8125 377.351562 588.890625 C 377.960938 587.96875 378.613281 587.078125 379.308594 586.21875 C 380.007812 585.363281 380.746094 584.539062 381.523438 583.753906 C 382.300781 582.96875 383.113281 582.222656 383.964844 581.519531 C 384.816406 580.8125 385.699219 580.152344 386.617188 579.53125 C 387.53125 578.914062 388.476562 578.339844 389.449219 577.816406 C 390.421875 577.289062 391.414062 576.8125 392.433594 576.382812 C 393.453125 575.957031 394.492188 575.578125 395.546875 575.253906 C 396.605469 574.925781 397.671875 574.652344 398.757812 574.429688 C 399.839844 574.210938 400.929688 574.042969 402.03125 573.929688 C 403.128906 573.816406 404.230469 573.753906 405.335938 573.75 L 405.675781 573.75 C 406.78125 573.75 407.882812 573.804688 408.984375 573.914062 C 410.082031 574.019531 411.175781 574.183594 412.257812 574.398438 C 413.34375 574.613281 414.414062 574.882812 415.472656 575.203125 C 416.53125 575.523438 417.570312 575.894531 418.589844 576.320312 C 419.613281 576.742188 420.609375 577.214844 421.585938 577.734375 C 422.558594 578.257812 423.507812 578.824219 424.425781 579.4375 C 425.34375 580.050781 426.230469 580.710938 427.085938 581.410156 C 427.941406 582.113281 428.757812 582.851562 429.539062 583.636719 C 430.320312 584.417969 431.0625 585.234375 431.765625 586.089844 C 432.464844 586.945312 433.121094 587.832031 433.738281 588.75 C 434.351562 589.667969 434.917969 590.617188 435.441406 591.589844 C 435.960938 592.566406 436.433594 593.5625 436.855469 594.585938 C 437.277344 595.605469 437.652344 596.644531 437.972656 597.703125 C 438.292969 598.761719 438.5625 599.832031 438.777344 600.914062 C 438.992188 602 439.152344 603.09375 439.261719 604.191406 C 439.371094 605.292969 439.425781 606.394531 439.425781 607.5 C 439.425781 608.605469 439.371094 609.707031 439.261719 610.808594 C 439.152344 611.90625 438.992188 613 438.777344 614.085938 C 438.5625 615.167969 438.292969 616.238281 437.972656 617.296875 C 437.652344 618.355469 437.277344 619.394531 436.855469 620.414062 C 436.433594 621.4375 435.960938 622.433594 435.441406 623.410156 C 434.917969 624.382812 434.351562 625.332031 433.738281 626.25 C 433.121094 627.167969 432.464844 628.054688 431.765625 628.910156 C 431.0625 629.765625 430.320312 630.582031 429.539062 631.363281 C 428.757812 632.144531 427.941406 632.886719 427.085938 633.589844 C 426.230469 634.289062 425.34375 634.949219 424.425781 635.5625 C 423.507812 636.175781 422.558594 636.742188 421.585938 637.265625 C 420.609375 637.785156 419.613281 638.257812 418.589844 638.679688 C 417.570312 639.105469 416.53125 639.476562 415.472656 639.796875 C 414.414062 640.117188 413.34375 640.386719 412.257812 640.601562 C 411.175781 640.816406 410.082031 640.980469 408.984375 641.085938 C 407.882812 641.195312 406.78125 641.25 405.675781 641.25 Z M 470.136719 422.042969 C 467.890625 423.125 465.722656 424.355469 463.640625 425.730469 C 461.558594 427.105469 459.578125 428.613281 457.699219 430.253906 C 455.820312 431.894531 454.058594 433.65625 452.417969 435.535156 C 450.773438 437.414062 449.265625 439.394531 447.890625 441.476562 C 446.515625 443.558594 445.285156 445.722656 444.203125 447.96875 C 443.121094 450.21875 442.191406 452.527344 441.417969 454.902344 C 440.648438 457.273438 440.039062 459.6875 439.589844 462.140625 C 439.144531 464.597656 438.863281 467.070312 438.75 469.5625 C 438.757812 470.6875 438.707031 471.8125 438.605469 472.933594 C 438.503906 474.050781 438.347656 475.164062 438.140625 476.269531 C 437.929688 477.375 437.667969 478.46875 437.355469 479.550781 C 437.042969 480.628906 436.675781 481.691406 436.257812 482.738281 C 435.84375 483.78125 435.378906 484.804688 434.863281 485.804688 C 434.347656 486.804688 433.785156 487.777344 433.175781 488.726562 C 432.570312 489.671875 431.917969 490.585938 431.21875 491.46875 C 430.523438 492.351562 429.785156 493.199219 429.007812 494.011719 C 428.230469 494.824219 427.414062 495.597656 426.5625 496.332031 C 425.707031 497.066406 424.824219 497.757812 423.902344 498.40625 C 422.984375 499.054688 422.035156 499.660156 421.058594 500.214844 C 420.082031 500.773438 419.082031 501.28125 418.054688 501.742188 C 417.027344 502.203125 415.980469 502.617188 414.917969 502.976562 C 413.851562 503.335938 412.769531 503.644531 411.675781 503.902344 C 410.578125 504.15625 409.472656 504.359375 408.359375 504.511719 C 407.242188 504.660156 406.125 504.757812 405 504.796875 C 403.914062 504.839844 402.828125 504.824219 401.746094 504.753906 C 400.660156 504.683594 399.585938 504.5625 398.511719 504.386719 C 397.441406 504.207031 396.378906 503.976562 395.332031 503.695312 C 394.285156 503.414062 393.25 503.078125 392.234375 502.691406 C 391.222656 502.304688 390.226562 501.871094 389.257812 501.382812 C 388.285156 500.898438 387.339844 500.363281 386.421875 499.785156 C 385.503906 499.203125 384.617188 498.582031 383.761719 497.910156 C 382.90625 497.242188 382.085938 496.53125 381.300781 495.78125 C 380.515625 495.03125 379.769531 494.242188 379.0625 493.417969 C 378.359375 492.589844 377.695312 491.730469 377.074219 490.839844 C 376.457031 489.949219 375.882812 489.027344 375.351562 488.078125 C 374.824219 487.128906 374.347656 486.15625 373.914062 485.160156 C 373.484375 484.160156 373.105469 483.144531 372.777344 482.109375 C 372.449219 481.074219 372.171875 480.027344 371.949219 478.964844 C 371.722656 477.898438 371.554688 476.828125 371.4375 475.75 C 371.320312 474.667969 371.257812 473.585938 371.25 472.5 C 371.238281 469.691406 371.324219 466.886719 371.507812 464.085938 C 371.6875 461.285156 371.964844 458.492188 372.339844 455.710938 C 372.710938 452.925781 373.179688 450.160156 373.742188 447.410156 C 374.304688 444.660156 374.960938 441.929688 375.710938 439.226562 C 376.460938 436.519531 377.300781 433.84375 378.234375 431.195312 C 379.164062 428.546875 380.1875 425.933594 381.300781 423.355469 C 382.410156 420.777344 383.609375 418.242188 384.894531 415.746094 C 386.179688 413.25 387.550781 410.800781 389.003906 408.398438 C 390.453125 405.996094 391.988281 403.644531 393.601562 401.347656 C 395.214844 399.050781 396.90625 396.8125 398.675781 394.628906 C 400.441406 392.449219 402.28125 390.332031 404.195312 388.273438 C 406.105469 386.21875 408.085938 384.230469 410.136719 382.3125 C 412.183594 380.390625 414.296875 378.546875 416.46875 376.769531 C 418.644531 374.996094 420.878906 373.296875 423.171875 371.671875 C 425.460938 370.050781 427.804688 368.507812 430.203125 367.046875 C 432.597656 365.585938 435.042969 364.207031 437.535156 362.914062 C 439.082031 362.0625 440.59375 361.152344 442.066406 360.179688 C 443.542969 359.210938 444.976562 358.183594 446.371094 357.101562 C 447.765625 356.015625 449.117188 354.878906 450.421875 353.691406 C 451.726562 352.503906 452.984375 351.265625 454.191406 349.976562 C 455.402344 348.6875 456.558594 347.355469 457.660156 345.976562 C 458.765625 344.597656 459.8125 343.179688 460.804688 341.71875 C 461.796875 340.257812 462.730469 338.761719 463.605469 337.226562 C 464.480469 335.695312 465.292969 334.128906 466.046875 332.53125 C 466.796875 330.933594 467.484375 329.308594 468.109375 327.65625 C 468.734375 326.003906 469.292969 324.332031 469.785156 322.636719 C 470.277344 320.9375 470.703125 319.226562 471.0625 317.496094 C 471.421875 315.769531 471.710938 314.027344 471.933594 312.277344 C 472.15625 310.523438 472.308594 308.765625 472.394531 307.003906 C 472.476562 305.238281 472.492188 303.476562 472.4375 301.710938 C 472.382812 299.945312 472.261719 298.183594 472.066406 296.429688 C 471.875 294.675781 471.613281 292.929688 471.285156 291.195312 C 470.957031 289.539062 470.570312 287.902344 470.125 286.277344 C 469.675781 284.648438 469.167969 283.042969 468.601562 281.457031 C 468.035156 279.867188 467.410156 278.304688 466.726562 276.761719 C 466.042969 275.21875 465.304688 273.707031 464.511719 272.21875 C 463.714844 270.730469 462.867188 269.277344 461.964844 267.851562 C 461.0625 266.429688 460.109375 265.039062 459.101562 263.6875 C 458.097656 262.332031 457.042969 261.019531 455.941406 259.742188 C 454.835938 258.46875 453.6875 257.234375 452.496094 256.042969 C 451.300781 254.855469 450.0625 253.710938 448.785156 252.609375 C 447.507812 251.511719 446.1875 250.460938 444.832031 249.460938 C 443.476562 248.460938 442.082031 247.507812 440.65625 246.609375 C 439.230469 245.714844 437.773438 244.867188 436.28125 244.078125 C 434.792969 243.289062 433.277344 242.554688 431.734375 241.875 C 430.1875 241.199219 428.621094 240.578125 427.03125 240.015625 C 425.441406 239.453125 423.835938 238.953125 422.207031 238.511719 C 420.582031 238.066406 418.941406 237.683594 417.285156 237.363281 C 416.070312 237.140625 414.855469 236.949219 413.628906 236.789062 C 412.40625 236.632812 411.179688 236.507812 409.949219 236.417969 C 408.71875 236.328125 407.488281 236.269531 406.253906 236.25 C 405.019531 236.226562 403.789062 236.234375 402.554688 236.28125 C 401.320312 236.324219 400.089844 236.402344 398.863281 236.515625 C 397.632812 236.628906 396.410156 236.773438 395.1875 236.953125 C 393.96875 237.132812 392.753906 237.34375 391.546875 237.589844 C 390.335938 237.835938 389.136719 238.117188 387.941406 238.425781 C 386.75 238.738281 385.5625 239.082031 384.390625 239.460938 C 383.214844 239.835938 382.050781 240.246094 380.898438 240.6875 C 379.746094 241.125 378.605469 241.597656 377.480469 242.101562 C 376.355469 242.605469 375.242188 243.136719 374.144531 243.699219 C 373.046875 244.265625 371.96875 244.859375 370.902344 245.480469 C 369.839844 246.105469 368.792969 246.757812 367.761719 247.4375 C 366.734375 248.117188 365.722656 248.824219 364.734375 249.5625 C 363.742188 250.296875 362.773438 251.058594 361.828125 251.847656 C 360.878906 252.636719 359.953125 253.453125 359.046875 254.292969 C 358.144531 255.132812 357.265625 255.996094 356.410156 256.882812 C 355.550781 257.773438 354.722656 258.683594 353.914062 259.617188 C 353.109375 260.550781 352.328125 261.503906 351.574219 262.480469 C 350.820312 263.457031 350.09375 264.453125 349.394531 265.46875 C 348.695312 266.488281 348.023438 267.519531 347.382812 268.574219 C 346.738281 269.628906 346.125 270.695312 345.542969 271.785156 C 344.957031 272.871094 344.402344 273.972656 343.878906 275.089844 C 343.355469 276.207031 342.863281 277.335938 342.402344 278.480469 C 341.941406 279.625 341.511719 280.78125 341.113281 281.949219 C 340.714844 283.117188 340.347656 284.292969 340.015625 285.480469 C 339.683594 286.667969 339.382812 287.863281 339.113281 289.070312 C 338.84375 290.273438 338.609375 291.484375 338.410156 292.699219 C 338.207031 293.917969 338.039062 295.140625 337.902344 296.363281 C 337.769531 297.589844 337.667969 298.820312 337.601562 300.050781 C 337.535156 301.285156 337.5 302.515625 337.5 303.75 C 337.5 304.855469 337.445312 305.957031 337.335938 307.058594 C 337.230469 308.15625 337.066406 309.25 336.851562 310.335938 C 336.636719 311.417969 336.367188 312.488281 336.046875 313.546875 C 335.726562 314.605469 335.355469 315.644531 334.929688 316.664062 C 334.507812 317.6875 334.035156 318.683594 333.515625 319.660156 C 332.992188 320.632812 332.425781 321.582031 331.8125 322.5 C 331.199219 323.417969 330.539062 324.304688 329.839844 325.160156 C 329.136719 326.015625 328.394531 326.832031 327.613281 327.613281 C 326.832031 328.394531 326.015625 329.136719 325.160156 329.839844 C 324.304688 330.539062 323.417969 331.199219 322.5 331.8125 C 321.582031 332.425781 320.632812 332.992188 319.660156 333.515625 C 318.683594 334.035156 317.6875 334.507812 316.664062 334.929688 C 315.644531 335.355469 314.605469 335.726562 313.546875 336.046875 C 312.488281 336.367188 311.417969 336.636719 310.335938 336.851562 C 309.25 337.066406 308.15625 337.230469 307.058594 337.335938 C 305.957031 337.445312 304.855469 337.5 303.75 337.5 C 302.644531 337.5 301.542969 337.445312 300.441406 337.335938 C 299.34375 337.230469 298.25 337.066406 297.164062 336.851562 C 296.082031 336.636719 295.011719 336.367188 293.953125 336.046875 C 292.894531 335.726562 291.855469 335.355469 290.835938 334.929688 C 289.8125 334.507812 288.816406 334.035156 287.839844 333.515625 C 286.867188 332.992188 285.917969 332.425781 285 331.8125 C 284.082031 331.199219 283.195312 330.539062 282.339844 329.839844 C 281.484375 329.136719 280.667969 328.394531 279.886719 327.613281 C 279.105469 326.832031 278.363281 326.015625 277.660156 325.160156 C 276.960938 324.304688 276.300781 323.417969 275.6875 322.5 C 275.074219 321.582031 274.507812 320.632812 273.984375 319.660156 C 273.464844 318.683594 272.992188 317.6875 272.570312 316.664062 C 272.144531 315.644531 271.773438 314.605469 271.453125 313.546875 C 271.132812 312.488281 270.863281 311.417969 270.648438 310.335938 C 270.433594 309.25 270.269531 308.15625 270.164062 307.058594 C 270.054688 305.957031 270 304.855469 270 303.75 C 270 301.777344 270.042969 299.804688 270.132812 297.832031 C 270.21875 295.863281 270.347656 293.894531 270.523438 291.929688 C 270.695312 289.964844 270.914062 288.003906 271.171875 286.046875 C 271.429688 284.089844 271.734375 282.140625 272.078125 280.199219 C 272.421875 278.257812 272.8125 276.320312 273.242188 274.394531 C 273.671875 272.46875 274.140625 270.554688 274.65625 268.648438 C 275.167969 266.746094 275.722656 264.851562 276.320312 262.972656 C 276.917969 261.089844 277.554688 259.222656 278.234375 257.371094 C 278.914062 255.519531 279.632812 253.683594 280.390625 251.859375 C 281.148438 250.039062 281.949219 248.234375 282.785156 246.449219 C 283.625 244.664062 284.5 242.894531 285.417969 241.148438 C 286.332031 239.402344 287.285156 237.675781 288.277344 235.96875 C 289.269531 234.261719 290.296875 232.578125 291.363281 230.917969 C 292.425781 229.257812 293.527344 227.621094 294.664062 226.007812 C 295.800781 224.394531 296.972656 222.808594 298.179688 221.246094 C 299.386719 219.6875 300.628906 218.152344 301.902344 216.644531 C 303.175781 215.136719 304.480469 213.660156 305.820312 212.210938 C 307.15625 210.761719 308.527344 209.339844 309.929688 207.953125 C 311.328125 206.5625 312.761719 205.203125 314.21875 203.878906 C 315.679688 202.550781 317.167969 201.257812 318.6875 199.996094 C 320.203125 198.734375 321.746094 197.507812 323.320312 196.3125 C 324.890625 195.117188 326.484375 193.960938 328.105469 192.835938 C 329.730469 191.710938 331.375 190.625 333.042969 189.574219 C 334.714844 188.519531 336.40625 187.507812 338.121094 186.527344 C 339.832031 185.550781 341.566406 184.613281 343.324219 183.710938 C 345.078125 182.808594 346.851562 181.945312 348.644531 181.121094 C 350.4375 180.300781 352.246094 179.515625 354.074219 178.769531 C 355.902344 178.027344 357.746094 177.324219 359.601562 176.660156 C 361.460938 175.996094 363.332031 175.375 365.21875 174.792969 C 367.105469 174.210938 369 173.671875 370.910156 173.171875 C 372.820312 172.675781 374.738281 172.21875 376.667969 171.804688 C 378.597656 171.390625 380.535156 171.019531 382.480469 170.6875 C 384.425781 170.359375 386.378906 170.074219 388.335938 169.832031 C 390.292969 169.585938 392.253906 169.386719 394.222656 169.230469 C 396.1875 169.070312 398.15625 168.957031 400.128906 168.886719 C 402.101562 168.816406 404.074219 168.785156 406.046875 168.800781 C 408.019531 168.816406 409.992188 168.875 411.960938 168.976562 C 413.933594 169.078125 415.898438 169.222656 417.863281 169.414062 C 419.828125 169.601562 421.785156 169.832031 423.742188 170.105469 C 425.695312 170.378906 427.640625 170.695312 429.582031 171.054688 C 431.523438 171.414062 433.453125 171.816406 435.375 172.257812 C 437.296875 172.703125 439.210938 173.1875 441.109375 173.71875 C 443.011719 174.246094 444.902344 174.8125 446.777344 175.425781 C 448.652344 176.035156 450.515625 176.6875 452.363281 177.378906 C 454.210938 178.070312 456.042969 178.804688 457.859375 179.574219 C 459.671875 180.347656 461.472656 181.160156 463.25 182.011719 C 465.03125 182.863281 466.792969 183.753906 468.53125 184.683594 C 470.273438 185.609375 471.992188 186.578125 473.691406 187.582031 C 475.390625 188.585938 477.066406 189.625 478.71875 190.703125 C 480.371094 191.78125 482 192.894531 483.605469 194.042969 C 485.207031 195.191406 486.785156 196.375 488.339844 197.59375 C 489.890625 198.808594 491.414062 200.0625 492.914062 201.347656 C 494.410156 202.632812 495.878906 203.949219 497.320312 205.296875 C 498.757812 206.648438 500.167969 208.027344 501.546875 209.4375 C 502.925781 210.847656 504.273438 212.289062 505.589844 213.761719 C 506.90625 215.230469 508.1875 216.726562 509.4375 218.253906 C 510.6875 219.78125 511.90625 221.335938 513.085938 222.914062 C 514.269531 224.492188 515.417969 226.097656 516.527344 227.730469 C 517.640625 229.359375 518.714844 231.011719 519.753906 232.691406 C 520.792969 234.367188 521.796875 236.066406 522.761719 237.785156 C 523.726562 239.507812 524.652344 241.25 525.539062 243.011719 C 526.429688 244.773438 527.277344 246.554688 528.089844 248.351562 C 528.898438 250.152344 529.667969 251.96875 530.398438 253.800781 C 531.128906 255.632812 531.820312 257.480469 532.472656 259.34375 C 533.121094 261.207031 533.730469 263.082031 534.296875 264.972656 C 534.863281 266.863281 535.390625 268.761719 535.875 270.675781 C 536.359375 272.589844 536.800781 274.511719 537.199219 276.445312 C 537.597656 278.375 537.957031 280.316406 538.269531 282.261719 C 538.585938 284.210938 538.859375 286.164062 539.085938 288.125 C 539.316406 290.085938 539.503906 292.046875 539.644531 294.015625 C 539.789062 295.984375 539.886719 297.953125 539.945312 299.925781 C 540 301.898438 540.015625 303.871094 539.984375 305.84375 C 539.953125 307.816406 539.882812 309.789062 539.765625 311.757812 C 539.648438 313.726562 539.488281 315.695312 539.285156 317.65625 C 539.085938 319.617188 538.839844 321.574219 538.550781 323.527344 C 538.261719 325.480469 537.929688 327.425781 537.558594 329.363281 C 537.183594 331.300781 536.769531 333.226562 536.308594 335.144531 C 535.851562 337.066406 535.351562 338.972656 534.808594 340.871094 C 534.269531 342.769531 533.683594 344.652344 533.058594 346.523438 C 532.4375 348.394531 531.769531 350.253906 531.066406 352.09375 C 530.359375 353.9375 529.613281 355.765625 528.828125 357.574219 C 528.042969 359.382812 527.214844 361.175781 526.351562 362.949219 C 525.488281 364.722656 524.582031 366.476562 523.640625 368.210938 C 522.699219 369.945312 521.722656 371.65625 520.707031 373.347656 C 519.6875 375.039062 518.636719 376.707031 517.546875 378.351562 C 516.457031 379.996094 515.332031 381.617188 514.171875 383.210938 C 513.011719 384.808594 511.816406 386.378906 510.585938 387.921875 C 509.355469 389.464844 508.09375 390.980469 506.796875 392.46875 C 505.5 393.953125 504.175781 395.414062 502.8125 396.84375 C 501.453125 398.273438 500.0625 399.671875 498.640625 401.039062 C 497.222656 402.410156 495.769531 403.746094 494.289062 405.050781 C 492.8125 406.355469 491.304688 407.628906 489.765625 408.867188 C 488.230469 410.105469 486.667969 411.308594 485.082031 412.480469 C 483.492188 413.652344 481.878906 414.785156 480.242188 415.886719 C 478.601562 416.984375 476.941406 418.046875 475.257812 419.074219 C 473.570312 420.101562 471.867188 421.089844 470.136719 422.042969 Z M 470.136719 422.042969 " fill-opacity="1" fill-rule="nonzero" filter="url(#shadow)"/>

</svg>