<svg xmlns="http://www.w3.org/2000/svg" xmlns:xlink="http://www.w3.org/1999/xlink" width="1080" zoomAndPan="magnify" viewBox="0 0 810 809.999993" height="1080" preserveAspectRatio="xMidYMid meet" version="1.0"><path fill="#846b30" d="M 550.1875 405 C 550.1875 407.375 550.128906 409.75 550.015625 412.125 C 549.898438 414.496094 549.722656 416.867188 549.488281 419.230469 C 549.257812 421.597656 548.964844 423.953125 548.617188 426.304688 C 548.269531 428.652344 547.863281 430.996094 547.398438 433.324219 C 546.933594 435.65625 546.414062 437.972656 545.835938 440.277344 C 545.261719 442.582031 544.625 444.871094 543.9375 447.144531 C 543.246094 449.421875 542.503906 451.675781 541.703125 453.914062 C 540.902344 456.148438 540.046875 458.367188 539.136719 460.5625 C 538.226562 462.757812 537.265625 464.929688 536.25 467.074219 C 535.234375 469.222656 534.164062 471.347656 533.046875 473.441406 C 531.925781 475.535156 530.753906 477.605469 529.53125 479.640625 C 528.3125 481.679688 527.039062 483.6875 525.71875 485.664062 C 524.398438 487.636719 523.03125 489.582031 521.617188 491.488281 C 520.203125 493.398438 518.738281 495.269531 517.230469 497.105469 C 515.726562 498.945312 514.171875 500.742188 512.578125 502.503906 C 510.980469 504.261719 509.34375 505.984375 507.664062 507.664062 C 505.984375 509.34375 504.261719 510.980469 502.503906 512.578125 C 500.742188 514.171875 498.945312 515.726562 497.105469 517.234375 C 495.269531 518.738281 493.398438 520.203125 491.488281 521.617188 C 489.582031 523.03125 487.636719 524.398438 485.664062 525.71875 C 483.6875 527.039062 481.679688 528.3125 479.640625 529.53125 C 477.605469 530.753906 475.535156 531.925781 473.441406 533.046875 C 471.347656 534.164062 469.222656 535.234375 467.074219 536.25 C 464.929688 537.265625 462.757812 538.226562 460.5625 539.136719 C 458.367188 540.046875 456.148438 540.902344 453.914062 541.703125 C 451.675781 542.503906 449.417969 543.246094 447.144531 543.9375 C 444.871094 544.625 442.582031 545.261719 440.277344 545.835938 C 437.972656 546.414062 435.65625 546.933594 433.324219 547.398438 C 430.996094 547.863281 428.652344 548.269531 426.304688 548.617188 C 423.953125 548.964844 421.597656 549.257812 419.230469 549.488281 C 416.867188 549.722656 414.496094 549.898438 412.125 550.015625 C 409.75 550.128906 407.375 550.1875 405 550.1875 C 402.625 550.1875 400.25 550.128906 397.875 550.015625 C 395.503906 549.898438 393.132812 549.722656 390.769531 549.488281 C 388.40625 549.257812 386.046875 548.964844 383.695312 548.617188 C 381.347656 548.269531 379.003906 547.863281 376.675781 547.398438 C 374.34375 546.933594 372.027344 546.414062 369.722656 545.835938 C 367.417969 545.261719 365.128906 544.625 362.855469 543.9375 C 360.582031 543.246094 358.324219 542.503906 356.085938 541.703125 C 353.851562 540.902344 351.632812 540.046875 349.4375 539.136719 C 347.242188 538.226562 345.070312 537.265625 342.921875 536.25 C 340.777344 535.234375 338.652344 534.164062 336.558594 533.046875 C 334.464844 531.925781 332.394531 530.753906 330.359375 529.53125 C 328.320312 528.3125 326.3125 527.039062 324.335938 525.71875 C 322.363281 524.398438 320.417969 523.03125 318.511719 521.617188 C 316.601562 520.203125 314.730469 518.738281 312.894531 517.234375 C 311.054688 515.726562 309.257812 514.171875 307.496094 512.578125 C 305.738281 510.980469 304.015625 509.34375 302.335938 507.664062 C 300.65625 505.984375 299.019531 504.261719 297.421875 502.503906 C 295.828125 500.742188 294.273438 498.945312 292.769531 497.105469 C 291.261719 495.269531 289.796875 493.398438 288.382812 491.488281 C 286.96875 489.582031 285.601562 487.636719 284.28125 485.664062 C 282.960938 483.6875 281.6875 481.679688 280.46875 479.640625 C 279.246094 477.605469 278.074219 475.535156 276.953125 473.441406 C 275.835938 471.347656 274.765625 469.222656 273.75 467.074219 C 272.734375 464.929688 271.773438 462.757812 270.863281 460.5625 C 269.953125 458.367188 269.097656 456.148438 268.296875 453.914062 C 267.496094 451.675781 266.753906 449.421875 266.0625 447.144531 C 265.375 444.871094 264.738281 442.582031 264.164062 440.277344 C 263.585938 437.972656 263.066406 435.65625 262.601562 433.324219 C 262.136719 430.996094 261.730469 428.652344 261.382812 426.304688 C 261.035156 423.953125 260.742188 421.597656 260.511719 419.230469 C 260.277344 416.867188 260.101562 414.496094 259.984375 412.125 C 259.871094 409.75 259.8125 407.375 259.8125 405 C 259.8125 402.625 259.871094 400.25 259.984375 397.875 C 260.101562 395.503906 260.277344 393.132812 260.511719 390.769531 C 260.742188 388.40625 261.035156 386.046875 261.382812 383.695312 C 261.730469 381.347656 262.136719 379.003906 262.601562 376.675781 C 263.066406 374.34375 263.585938 372.027344 264.164062 369.722656 C 264.738281 367.417969 265.375 365.128906 266.0625 362.855469 C 266.753906 360.582031 267.496094 358.324219 268.296875 356.085938 C 269.097656 353.851562 269.953125 351.632812 270.863281 349.4375 C 271.773438 347.242188 272.734375 345.070312 273.75 342.921875 C 274.765625 340.777344 275.835938 338.652344 276.953125 336.558594 C 278.074219 334.464844 279.246094 332.394531 280.46875 330.359375 C 281.6875 328.320312 282.960938 326.3125 284.28125 324.335938 C 285.601562 322.363281 286.96875 320.417969 288.382812 318.511719 C 289.800781 316.601562 291.261719 314.730469 292.769531 312.894531 C 294.273438 311.054688 295.828125 309.257812 297.421875 307.496094 C 299.019531 305.738281 300.65625 304.015625 302.335938 302.335938 C 304.015625 300.65625 305.738281 299.019531 307.496094 297.421875 C 309.257812 295.828125 311.054688 294.273438 312.894531 292.769531 C 314.730469 291.261719 316.601562 289.796875 318.511719 288.382812 C 320.417969 286.96875 322.363281 285.601562 324.335938 284.28125 C 326.3125 282.960938 328.320312 281.6875 330.359375 280.46875 C 332.394531 279.246094 334.464844 278.074219 336.558594 276.953125 C 338.652344 275.835938 340.777344 274.765625 342.921875 273.75 C 345.070312 272.734375 347.242188 271.773438 349.4375 270.863281 C 351.632812 269.953125 353.851562 269.097656 356.085938 268.296875 C 358.324219 267.496094 360.582031 266.753906 362.855469 266.0625 C 365.128906 265.375 367.417969 264.738281 369.722656 264.164062 C 372.027344 263.585938 374.34375 263.066406 376.675781 262.601562 C 379.003906 262.136719 381.347656 261.730469 383.695312 261.382812 C 386.046875 261.035156 388.40625 260.742188 390.769531 260.511719 C 393.132812 260.277344 395.503906 260.101562 397.875 259.984375 C 400.25 259.871094 402.625 259.8125 405 259.8125 C 407.375 259.8125 409.75 259.871094 412.125 259.984375 C 414.496094 260.101562 416.867188 260.277344 419.230469 260.511719 C 421.597656 260.742188 423.953125 261.035156 426.304688 261.382812 C 428.652344 261.730469 430.996094 262.136719 433.324219 262.601562 C 435.65625 263.066406 437.972656 263.585938 440.277344 264.164062 C 442.582031 264.738281 444.871094 265.375 447.144531 266.0625 C 449.417969 266.753906 451.675781 267.496094 453.914062 268.296875 C 456.148438 269.097656 458.367188 269.953125 460.5625 270.863281 C 462.757812 271.773438 464.929688 272.734375 467.074219 273.75 C 469.222656 274.765625 471.347656 275.835938 473.441406 276.953125 C 475.535156 278.074219 477.605469 279.246094 479.640625 280.46875 C 481.679688 281.6875 483.6875 282.960938 485.664062 284.28125 C 487.636719 285.601562 489.582031 286.96875 491.488281 288.382812 C 493.398438 289.800781 495.269531 291.261719 497.105469 292.769531 C 498.945312 294.273438 500.742188 295.828125 502.503906 297.421875 C 504.261719 299.019531 505.984375 300.65625 507.664062 302.335938 C 509.34375 304.015625 510.980469 305.738281 512.578125 307.496094 C 514.171875 309.257812 515.726562 311.054688 517.230469 312.894531 C 518.738281 314.730469 520.203125 316.601562 521.617188 318.511719 C 523.03125 320.417969 524.398438 322.363281 525.71875 324.335938 C 527.039062 326.3125 528.3125 328.320312 529.53125 330.359375 C 530.753906 332.394531 531.925781 334.464844 533.046875 336.558594 C 534.164062 338.652344 535.234375 340.777344 536.25 342.921875 C 537.265625 345.070312 538.226562 347.242188 539.136719 349.4375 C 540.046875 351.632812 540.902344 353.851562 541.703125 356.085938 C 542.503906 358.324219 543.246094 360.582031 543.9375 362.855469 C 544.625 365.128906 545.261719 367.417969 545.835938 369.722656 C 546.414062 372.027344 546.933594 374.34375 547.398438 376.675781 C 547.863281 379.003906 548.269531 381.347656 548.617188 383.695312 C 548.964844 386.046875 549.257812 388.40625 549.488281 390.769531 C 549.722656 393.132812 549.898438 395.503906 550.015625 397.875 C 550.128906 400.25 550.1875 402.625 550.1875 405 Z M 550.1875 405 " fill-opacity="1" fill-rule="nonzero"/>
    <defs>
        <filter id="shadow" x="-10%" y="-10%" width="120%" height="120%">
            <feGaussianBlur in="SourceAlpha" stdDeviation="2" />
            <feOffset dx="0" dy="40" result="offsetblur" />
            <feFlood flood-color="rgba(0,0,0,1.9)" />
            <feComposite in2="offsetblur" operator="in" />
            <feMerge>
                <feMergeNode />
                <feMergeNode in="SourceGraphic" />
            </feMerge>
        </filter>
    </defs>
    <path fill="#846b30" d="M 681.929688 0 L 128.070312 0 C 57.464844 0 0 57.464844 0 128.070312 L 0 681.777344 C 0 752.382812 57.464844 809.847656 128.070312 809.847656 L 681.777344 809.847656 C 752.382812 809.847656 809.847656 752.382812 809.847656 681.777344 L 809.847656 128.070312 C 810 57.464844 752.535156 0 681.929688 0 Z M 405 626.605469 C 282.734375 626.605469 183.394531 527.265625 183.394531 405 C 183.394531 282.734375 282.734375 183.394531 405 183.394531 C 527.265625 183.394531 626.605469 282.734375 626.605469 405 C 626.605469 527.265625 527.265625 626.605469 405 626.605469 Z M 634.246094 213.960938 C 613.15625 213.960938 596.039062 196.84375 596.039062 175.753906 C 596.039062 154.664062 613.15625 137.546875 634.246094 137.546875 C 655.335938 137.546875 672.453125 154.664062 672.453125 175.753906 C 672.453125 196.84375 655.335938 213.960938 634.246094 213.960938 Z M 634.246094 213.960938 " fill-opacity="1" fill-rule="nonzero" filter="url(#shadow)"/>
</svg>