<svg xmlns="http://www.w3.org/2000/svg" xmlns:xlink="http://www.w3.org/1999/xlink" width="1080" zoomAndPan="magnify" viewBox="0 0 810 809.999993" height="1080" preserveAspectRatio="xMidYMid meet" version="1.0">
    <defs>
        <filter id="shadow" x="-10%" y="-10%" width="120%" height="120%">
            <feGaussianBlur in="SourceAlpha" stdDeviation="20" />
            <feOffset dx="25" dy="35" result="offsetblur" />
            <feFlood flood-color="rgba(0,0,0,1.9)" />
            <feComposite in2="offsetblur" operator="in" />
            <feMerge>
                <feMergeNode />
                <feMergeNode in="SourceGraphic" />
            </feMerge>
        </filter>
    </defs>
    
    <g clip-path="url(#f4dd7a94b0)">
        <path fill="#846b30" d="M 564.277344 93.398438 L 527.953125 30.546875 C 524.761719 24.929688 524.539062 18.328125 527.953125 12.710938 C 534.886719 1.042969 551.949219 0.273438 558.996094 12.710938 L 625.371094 127.855469 L 625.480469 128.183594 C 627.792969 133.136719 627.132812 139.191406 624.492188 143.816406 L 624.382812 143.925781 L 624.382812 144.035156 C 621.410156 148.988281 616.34375 152.183594 610.621094 152.730469 L 481.167969 165.832031 C 474.675781 166.492188 468.621094 163.960938 464.878906 158.566406 C 457.171875 147.339844 463.445312 131.597656 477.648438 130.167969 L 542.8125 123.5625 C 497.019531 106.058594 448.035156 96.480469 399.050781 96.59375 C 343.132812 96.703125 286.882812 109.363281 238.335938 137.652344 C 148.074219 190.269531 106.902344 281.964844 106.902344 384.558594 C 106.902344 450.824219 128.367188 513.347656 169.207031 565.527344 C 178.34375 577.195312 169.867188 594.476562 155.007812 594.476562 C 149.503906 594.476562 144.332031 591.945312 140.917969 587.652344 C 95.234375 529.089844 71.128906 458.859375 71.128906 384.558594 C 71.128906 282.515625 107.675781 188.289062 190.894531 126.09375 C 245.050781 85.585938 311.207031 64.78125 378.355469 61.148438 C 441.761719 57.734375 505.496094 69.511719 564.277344 93.398438 Z M 267.066406 666.578125 C 364.707031 703.671875 480.179688 705.765625 571.542969 652.488281 C 661.808594 599.871094 702.976562 508.175781 702.976562 405.582031 C 702.976562 339.316406 681.511719 276.789062 640.671875 224.613281 C 634.617188 216.796875 636.050781 205.570312 643.753906 199.515625 C 651.570312 193.351562 662.910156 194.78125 668.960938 202.597656 C 714.644531 261.050781 738.863281 331.277344 738.863281 405.582031 C 738.863281 507.292969 702.316406 601.300781 619.539062 663.605469 C 565.488281 704.335938 499.441406 725.25 432.183594 728.992188 C 368.558594 732.515625 304.605469 720.734375 245.601562 696.738281 L 281.929688 759.59375 C 288.753906 771.480469 280.167969 786.453125 266.40625 786.453125 C 260.023438 786.453125 254.078125 783.039062 250.886719 777.535156 L 184.398438 662.0625 L 184.066406 661.292969 C 180.105469 650.285156 187.699219 638.617188 199.257812 637.40625 L 328.710938 624.308594 C 335.207031 623.648438 341.261719 626.289062 345.003906 631.574219 C 352.816406 642.800781 346.433594 658.542969 332.34375 659.972656 Z M 267.066406 666.578125 " fill-opacity="1" fill-rule="evenodd" filter="url(#shadow)"/>
    </g>

    <path fill="#846b30" d="M 405.546875 355.828125 C 378.796875 346.25 268.386719 306.953125 224.246094 292.75 L 224.136719 505.644531 L 406.644531 580.277344 Z M 405.546875 355.828125 " fill-opacity="1" fill-rule="evenodd"/>
    <path fill="#846b30" d="M 423.488281 354.835938 L 424.480469 577.746094 L 585.632812 478.453125 L 581.230469 267.214844 L 511.222656 306.070312 L 512.320312 357.148438 C 512.542969 368.925781 494.597656 369.257812 494.378906 357.476562 L 493.5 315.867188 Z M 423.488281 354.835938 " fill-opacity="1" fill-rule="evenodd"/>
    <path fill="#846b30" d="M 239.65625 278.992188 C 290.734375 295.835938 392.226562 332.050781 413.691406 339.753906 L 481.058594 302.328125 L 320.457031 240.683594 Z M 239.65625 278.992188 " fill-opacity="1" fill-rule="evenodd"/>
    <path fill="#846b30" d="M 342.910156 230.117188 L 501.535156 290.992188 L 566.589844 254.886719 L 393.878906 206.011719 Z M 342.910156 230.117188 " fill-opacity="1" fill-rule="evenodd"/>
</svg>