<svg xmlns="http://www.w3.org/2000/svg" xmlns:xlink="http://www.w3.org/1999/xlink" width="1080" zoomAndPan="magnify" viewBox="0 0 810 809.999993" height="1080" preserveAspectRatio="xMidYMid meet" version="1.0"><defs><clipPath id="4771292044"><path d="M 105.246094 539 L 686 539 L 686 728 L 105.246094 728 Z M 105.246094 539 " clip-rule="nonzero"/></clipPath><clipPath id="cfccb78666"><path d="M 603.492188 656 L 744.054688 656 L 744.054688 796.5 L 603.492188 796.5 Z M 603.492188 656 " clip-rule="nonzero"/></clipPath></defs><path fill="#846b30" d="M 263.851562 288.207031 L 156.191406 288.207031 C 158.015625 338.480469 175.378906 384.863281 203.640625 422.652344 C 215.152344 416.457031 240.363281 404.363281 277.183594 394.773438 C 269.050781 362.015625 264.464844 325.804688 263.851562 288.207031 " fill-opacity="1" fill-rule="nonzero"/><path fill="#846b30" d="M 503.023438 270.617188 C 502.296875 225.949219 496.085938 186.085938 486.273438 152.570312 C 456.246094 156.292969 428.433594 158.21875 403.105469 158.890625 L 403.105469 270.617188 L 503.023438 270.617188 " fill-opacity="1" fill-rule="nonzero"/><path fill="#846b30" d="M 385.515625 159.171875 C 384.210938 159.175781 382.902344 159.183594 381.613281 159.183594 C 351.664062 159.183594 325.742188 157.480469 304.382812 155.171875 C 303.46875 155.074219 302.582031 154.972656 301.679688 154.867188 C 292.253906 187.902344 286.308594 226.972656 285.605469 270.617188 L 385.515625 270.617188 L 385.515625 159.171875 " fill-opacity="1" fill-rule="nonzero"/><path fill="#846b30" d="M 280.339844 152.125 C 241.472656 146.433594 215.667969 138.863281 204.433594 135.136719 C 175.710938 173.113281 158.03125 219.878906 156.191406 270.617188 L 263.851562 270.617188 C 264.542969 228.394531 270.234375 187.925781 280.339844 152.125 " fill-opacity="1" fill-rule="nonzero"/><path fill="#846b30" d="M 285.605469 288.207031 C 286.210938 325.832031 290.71875 360.054688 297.988281 389.945312 C 301.09375 389.300781 304.242188 388.679688 307.480469 388.089844 C 332.929688 383.449219 359.039062 381.09375 385.515625 381.03125 L 385.515625 288.207031 L 285.605469 288.207031 " fill-opacity="1" fill-rule="nonzero"/><path fill="#846b30" d="M 299.558594 458.28125 C 292.703125 444.054688 286.777344 428.445312 281.8125 411.773438 C 249.671875 420.164062 226.691406 430.59375 214.9375 436.628906 C 246.566406 472.941406 288.9375 499.664062 337.050781 511.804688 C 323.074219 498.757812 310.394531 480.777344 299.558594 458.28125 " fill-opacity="1" fill-rule="nonzero"/><path fill="#846b30" d="M 489.070312 458.28125 C 477.980469 481.300781 464.960938 499.589844 450.601562 512.703125 C 499.804688 501.121094 543.199219 474.324219 575.550781 437.578125 C 551.445312 427.746094 528.226562 420.164062 506.027344 414.414062 C 501.230469 430.101562 495.558594 444.808594 489.070312 458.28125 " fill-opacity="1" fill-rule="nonzero"/><path fill="#846b30" d="M 311.519531 405.234375 C 308.46875 405.785156 305.492188 406.363281 302.558594 406.960938 C 321.46875 471.054688 353.5625 511.761719 385.515625 518.164062 L 385.515625 398.726562 C 357.109375 398.757812 332.222656 401.503906 311.519531 405.234375 " fill-opacity="1" fill-rule="nonzero"/><path fill="#846b30" d="M 403.105469 518.164062 C 434.644531 511.851562 466.304688 472.132812 485.308594 409.5 C 455.753906 403.144531 428.222656 400.007812 403.105469 399.046875 L 403.105469 518.164062 " fill-opacity="1" fill-rule="nonzero"/><path fill="#846b30" d="M 480.792969 135.523438 C 461.527344 80.878906 432.261719 46.496094 403.105469 40.664062 L 403.105469 141.289062 C 426.84375 140.640625 452.800781 138.890625 480.792969 135.523438 " fill-opacity="1" fill-rule="nonzero"/><path fill="#846b30" d="M 299.558594 100.539062 C 310.394531 78.046875 323.074219 60.0625 337.050781 47.019531 C 289.710938 58.964844 247.9375 85.035156 216.476562 120.457031 C 229.550781 124.382812 253.035156 130.460938 285.597656 135.097656 C 289.710938 122.878906 294.367188 111.3125 299.558594 100.539062 " fill-opacity="1" fill-rule="nonzero"/><path fill="#846b30" d="M 385.515625 141.574219 L 385.515625 40.664062 C 355.972656 46.574219 326.308594 81.824219 307.058594 137.769531 C 307.070312 137.769531 307.085938 137.769531 307.09375 137.773438 C 328.652344 140.070312 354.996094 141.730469 385.515625 141.574219 " fill-opacity="1" fill-rule="nonzero"/><path fill="#846b30" d="M 403.105469 381.332031 C 412.949219 381.683594 422.828125 382.332031 432.738281 383.316406 C 451.742188 385.195312 470.855469 388.253906 490.023438 392.445312 C 497.65625 361.96875 502.398438 326.882812 503.023438 288.207031 L 403.105469 288.207031 L 403.105469 381.332031 " fill-opacity="1" fill-rule="nonzero"/><path fill="#846b30" d="M 524.78125 270.617188 L 635.140625 270.617188 C 633.289062 219.628906 615.445312 172.660156 586.472656 134.578125 C 558.878906 141.046875 532.542969 145.984375 507.59375 149.671875 C 518.136719 186.070312 524.070312 227.429688 524.78125 270.617188 " fill-opacity="1" fill-rule="nonzero"/><path fill="#846b30" d="M 489.070312 100.539062 C 493.914062 110.601562 498.296875 121.355469 502.207031 132.683594 C 524.941406 129.394531 548.882812 125.042969 573.921875 119.40625 C 541.746094 83.601562 498.980469 57.507812 450.59375 46.117188 C 464.960938 59.234375 477.980469 77.523438 489.070312 100.539062 " fill-opacity="1" fill-rule="nonzero"/><path fill="#846b30" d="M 510.78125 397.421875 C 536.25 404.070312 561.753906 412.738281 587.152344 423.359375 C 615.726562 385.4375 633.304688 338.796875 635.140625 288.207031 L 524.78125 288.207031 C 524.140625 326.816406 519.328125 363.96875 510.78125 397.421875 " fill-opacity="1" fill-rule="nonzero"/><path fill="#846b30" d="M 395.664062 21.222656 C 253.300781 21.222656 137.480469 137.042969 137.480469 279.414062 C 137.480469 421.777344 253.300781 537.597656 395.664062 537.597656 C 538.03125 537.597656 653.851562 421.777344 653.851562 279.414062 C 653.851562 137.042969 538.03125 21.222656 395.664062 21.222656 Z M 395.664062 558.824219 C 241.597656 558.824219 116.253906 433.480469 116.253906 279.414062 C 116.253906 125.34375 241.597656 0 395.664062 0 C 549.734375 0 675.078125 125.34375 675.078125 279.414062 C 675.078125 433.480469 549.734375 558.824219 395.664062 558.824219 " fill-opacity="1" fill-rule="nonzero"/><path fill="#846b30" d="M 333.78125 591.972656 L 309.832031 682.265625 L 286.546875 682.265625 L 273.921875 632.460938 L 261.988281 682.265625 L 237.710938 682.265625 L 213.722656 591.972656 L 239.800781 591.972656 L 252.433594 643.945312 L 264.753906 591.972656 L 286.511719 591.972656 L 299.917969 644.046875 L 312.566406 591.972656 L 333.78125 591.972656 " fill-opacity="1" fill-rule="nonzero"/><path fill="#846b30" d="M 455.699219 591.972656 L 431.75 682.265625 L 408.464844 682.265625 L 395.832031 632.460938 L 383.902344 682.265625 L 359.625 682.265625 L 335.632812 591.972656 L 361.714844 591.972656 L 374.347656 643.945312 L 386.667969 591.972656 L 408.429688 591.972656 L 421.828125 644.046875 L 434.480469 591.972656 L 455.699219 591.972656 " fill-opacity="1" fill-rule="nonzero"/><path fill="#846b30" d="M 577.609375 591.972656 L 553.660156 682.265625 L 530.375 682.265625 L 517.742188 632.460938 L 505.816406 682.265625 L 481.539062 682.265625 L 457.550781 591.972656 L 483.628906 591.972656 L 496.257812 643.945312 L 508.578125 591.972656 L 530.339844 591.972656 L 543.746094 644.046875 L 556.394531 591.972656 L 577.609375 591.972656 " fill-opacity="1" fill-rule="nonzero"/><g clip-path="url(#4771292044)"><path fill="#846b30" d="M 603.953125 704.898438 C 600.285156 705.476562 596.554688 705.867188 592.726562 705.867188 L 198.605469 705.867188 C 159.046875 705.867188 126.863281 673.683594 126.863281 634.125 L 126.863281 632.460938 C 126.863281 592.90625 159.046875 560.722656 198.605469 560.722656 L 592.726562 560.722656 C 632.285156 560.722656 664.460938 592.90625 664.460938 632.460938 L 664.460938 634.125 C 664.460938 642.960938 662.78125 651.394531 659.847656 659.226562 L 679.808594 666.640625 C 683.597656 656.511719 685.6875 645.558594 685.6875 634.125 L 685.6875 632.460938 C 685.6875 581.203125 643.984375 539.496094 592.726562 539.496094 L 198.605469 539.496094 C 147.34375 539.496094 105.640625 581.203125 105.640625 632.460938 L 105.640625 634.125 C 105.640625 685.382812 147.34375 727.085938 198.605469 727.085938 L 592.726562 727.085938 C 599.152344 727.085938 605.425781 726.429688 611.488281 725.179688 L 603.953125 704.898438 " fill-opacity="1" fill-rule="nonzero"/></g><g clip-path="url(#cfccb78666)"><path fill="#846b30" d="M 744.054688 779.269531 L 692.140625 727.351562 L 732.96875 704.242188 L 603.730469 656.234375 L 651.742188 785.464844 L 674.851562 744.640625 L 726.765625 796.558594 L 744.054688 779.269531 " fill-opacity="1" fill-rule="nonzero"/></g></svg>