<svg xmlns="http://www.w3.org/2000/svg" xmlns:xlink="http://www.w3.org/1999/xlink" width="1095" zoomAndPan="magnify" viewBox="0 0 810 809.999993" height="1080" preserveAspectRatio="xMidYMid meet" version="1.0">
    <defs>
        <filter id="shadow" x="-10%" y="-10%" width="120%" height="120%">
            <feGaussianBlur in="SourceAlpha" stdDeviation="22" />
            <feOffset dx="0" dy="32" result="offsetblur" />
            <feFlood flood-color="rgba(0,0,20,1.9)" />
            <feComposite in2="offsetblur" operator="in" />
            <feMerge>
                <feMergeNode />
                <feMergeNode in="SourceGraphic" />
            </feMerge>
        </filter>
    </defs>
    <g clip-path="url(#22e3632de1)">
        <path fill="#846b30" d="M 412.449219 0 C 193.15625 0 14.902344 178.253906 14.902344 397.546875 C 14.902344 616.839844 193.15625 795.09375 412.449219 795.09375 C 631.738281 795.09375 809.996094 616.839844 809.996094 397.546875 C 809.996094 178.253906 631.738281 0 412.449219 0 Z M 212.136719 274.179688 C 212.136719 231.601562 246.503906 197.234375 289.078125 197.234375 C 331.398438 197.234375 366.023438 231.601562 366.023438 274.179688 C 366.023438 316.496094 331.398438 351.125 289.078125 351.125 C 246.503906 351.125 212.136719 316.496094 212.136719 274.179688 Z M 316.265625 611.195312 C 308.828125 622.480469 296.515625 628.378906 284.207031 628.378906 C 276.769531 628.378906 269.332031 626.328125 262.917969 621.96875 C 245.222656 610.167969 240.347656 586.316406 252.144531 568.621094 L 508.628906 183.898438 C 520.425781 166.199219 544.28125 161.328125 561.976562 173.125 C 579.675781 184.921875 584.546875 208.777344 572.75 226.472656 Z M 535.816406 597.859375 C 493.496094 597.859375 458.871094 563.488281 458.871094 520.914062 C 458.871094 478.59375 493.496094 443.96875 535.816406 443.96875 C 578.390625 443.96875 612.761719 478.59375 612.761719 520.914062 C 612.761719 563.488281 578.390625 597.859375 535.816406 597.859375 Z M 535.816406 597.859375 " fill-opacity="1" fill-rule="nonzero" filter="url(#shadow)"/>
    </g>
</svg>